<?xml version="1.0" encoding="UTF-8" standalone="no"?>
<!-- Created with Inkscape (http://www.inkscape.org/) -->

<svg
   xmlns:dc="http://purl.org/dc/elements/1.1/"
   xmlns:cc="http://creativecommons.org/ns#"
   xmlns:rdf="http://www.w3.org/1999/02/22-rdf-syntax-ns#"
   xmlns:svg="http://www.w3.org/2000/svg"
   xmlns="http://www.w3.org/2000/svg"
   xmlns:sodipodi="http://sodipodi.sourceforge.net/DTD/sodipodi-0.dtd"
   xmlns:inkscape="http://www.inkscape.org/namespaces/inkscape"
   width="210mm"
   height="297mm"
   id="svg11216"
   version="1.1"
   inkscape:version="0.48.2 r9819"
   sodipodi:docname="logo1.1.svg">
  <title
     id="title3012">Bristol Hackspace Logo v1.1</title>
  <sodipodi:namedview
     inkscape:document-units="mm"
     id="base"
     pagecolor="#ffffff"
     bordercolor="#666666"
     borderopacity="1.0"
     inkscape:pageopacity="0.0"
     inkscape:pageshadow="2"
     inkscape:zoom="0.7"
     inkscape:cx="339.83981"
     inkscape:cy="567.52635"
     inkscape:current-layer="layer1"
     showgrid="false"
     inkscape:window-width="1020"
     inkscape:window-height="819"
     inkscape:window-x="537"
     inkscape:window-y="134"
     inkscape:window-maximized="0" />
  <defs
     id="defs3" />
  <metadata
     id="metadata4">
    <rdf:RDF>
      <cc:Work
         rdf:about="">
        <dc:format>image/svg+xml</dc:format>
        <dc:type
           rdf:resource="http://purl.org/dc/dcmitype/StillImage" />
        <dc:title>Bristol Hackspace Logo v1.1</dc:title>
        <cc:license
           rdf:resource="http://creativecommons.org/licenses/by/3.0/" />
        <dc:date>2012-03-22</dc:date>
        <dc:creator>
          <cc:Agent>
            <dc:title>Barney Livingston</dc:title>
          </cc:Agent>
        </dc:creator>
        <dc:description />
      </cc:Work>
      <cc:License
         rdf:about="http://creativecommons.org/licenses/by/3.0/">
        <cc:permits
           rdf:resource="http://creativecommons.org/ns#Reproduction" />
        <cc:permits
           rdf:resource="http://creativecommons.org/ns#Distribution" />
        <cc:requires
           rdf:resource="http://creativecommons.org/ns#Notice" />
        <cc:requires
           rdf:resource="http://creativecommons.org/ns#Attribution" />
        <cc:permits
           rdf:resource="http://creativecommons.org/ns#DerivativeWorks" />
      </cc:License>
    </rdf:RDF>
  </metadata>
  <g
     inkscape:label="Layer 1"
     inkscape:groupmode="layer"
     id="layer1">
    <g
       id="g3121">
      <path
         id="path7569"
         d="m 583.37723,504.76037 0.1156,-0.01 18.6076,3.71792 18.78796,8.81969 0,11.23982 -18.78796,8.81969 -18.6076,3.71792 -0.1156,-0.01 -2.10941,16.69659 0.11395,0.0197 17.09912,8.22778 16.00384,13.21561 -2.79479,10.88647 -20.39155,3.87122 -18.94783,-1.02724 -0.10903,-0.0385 -6.19543,15.64803 0.10575,0.0467 14.51585,12.22279 12.2146,16.78021 -5.41496,9.84858 -20.71291,-1.32156 -18.09767,-5.70681 -0.0959,-0.0639 -9.89203,13.61486 0.091,0.0721 11.01929,15.44799 7.658,19.29134 -7.69407,8.19253 -19.73323,-6.43154 -16.10959,-10.0273 -0.0779,-0.0869 -12.9672,10.72743 0.0705,0.0926 6.83161,17.70334 2.61935,20.58912 -9.4895,6.02244 -17.51395,-11.13734 -13.10985,-13.71898 -0.0533,-0.10247 -15.22745,7.16528 0.0451,0.10658 2.21435,18.84617 -2.58328,20.59404 -10.68889,3.47279 -14.19448,-15.1422 -9.28618,-16.5482 -0.0262,-0.11313 -16.53098,3.15305 0.0172,0.11478 -2.54228,18.80518 -7.62275,19.30445 -11.21686,0.70587 -9.98303,-18.19687 -4.87879,-18.33788 0.002,-0.11641 -16.79578,-1.05676 -0.0123,0.1156 -7.13823,17.582 -12.18508,16.80234 -11.03979,-2.10613 -5.14359,-20.10789 -0.1656,-18.97488 0.032,-0.11232 -16.00547,-5.20016 -0.041,0.10904 -11.28655,15.25369 -15.98006,13.2443 -10.16995,-4.78533 0.0189,-20.75555 4.55906,-18.41986 0.0582,-0.10002 -14.20923,-9.01809 -0.0664,0.0959 -14.72572,11.96783 -18.77239,8.85412 -8.65983,-7.16446 5.17967,-20.09887 8.99677,-16.70724 0.0812,-0.0828 -11.5202,-12.26788 -0.0877,0.0762 -17.23931,7.92936 -20.38417,3.9073 -6.60616,-9.0927 10.015,-18.17883 12.86882,-13.94525 0.0992,-0.0598 -8.10727,-14.74786 -0.10411,0.0517 -18.66991,3.39408 -20.71538,-1.28467 -4.13685,-10.45032 14.22154,-15.11679 15.9325,-10.30686 0.11068,-0.0336 -4.18521,-16.30061 -0.11314,0.0246 -18.92733,-1.35682 -19.74553,-6.39546 -1.40846,-11.15047 17.53445,-11.10619 17.99519,-6.01998 0.1156,-0.005 0,-16.8294 -0.1156,-0.005 -17.99519,-6.01998 -17.53445,-11.10619 1.40846,-11.15047 19.74553,-6.39546 18.92733,-1.35682 0.11314,0.0246 4.18521,-16.30061 -0.11068,-0.0336 -15.9325,-10.30686 -14.22154,-15.11679 4.13685,-10.45032 20.71538,-1.28467 18.66991,3.39408 0.10411,0.0516 8.10727,-14.74786 -0.0992,-0.0598 -12.86882,-13.94525 -10.015,-18.17883 6.60616,-9.0927 20.38417,3.9073 17.23931,7.92936 0.0877,0.0762 11.5202,-12.26788 -0.0812,-0.0828 -8.99677,-16.70724 -5.17967,-20.09887 8.65983,-7.16446 18.77239,8.85412 14.72572,11.96783 0.0664,0.0959 14.20923,-9.01809 -0.0582,-0.10002 -4.55906,-18.41986 -0.0189,-20.75555 10.16995,-4.78533 15.98006,13.2443 11.28655,15.25369 0.041,0.10904 16.00547,-5.20016 -0.032,-0.11232 0.1656,-18.97488 5.14359,-20.10789 11.03979,-2.10613 12.18508,16.80234 7.13823,17.582 0.0123,0.1156 16.79578,-1.05676 -0.002,-0.11641 4.87879,-18.33788 9.98303,-18.19687 11.21686,0.70587 7.62275,19.30445 2.54228,18.80518 -0.0172,0.11478 16.53098,3.15305 0.0262,-0.11313 9.28618,-16.5482 14.19448,-15.1422 10.68889,3.47279 2.58328,20.59404 -2.21435,18.84617 -0.0451,0.10658 15.22745,7.16528 0.0533,-0.10247 13.10985,-13.71898 17.51395,-11.13734 9.4895,6.02244 -2.61935,20.58912 -6.83161,17.70334 -0.0705,0.0926 12.9672,10.72743 0.0779,-0.0869 16.10959,-10.0273 19.73323,-6.43154 7.69407,8.19253 -7.658,19.29134 -11.01929,15.44799 -0.091,0.0721 9.89203,13.61486 0.0959,-0.064 18.09767,-5.70681 20.71291,-1.32156 5.41496,9.84858 -12.2146,16.78021 -14.51585,12.22279 -0.10575,0.0467 6.19543,15.64803 0.10903,-0.0385 18.94783,-1.02724 20.39155,3.87122 2.79479,10.88647 -16.00384,13.21561 -17.09912,8.22778 -0.11395,0.0197 z"
         style="fill:#f08818;fill-opacity:1;stroke:none"
         inkscape:connector-curvature="0" />
      <path
         id="path240-4"
         d="m 373.20871,714.22559 -59.93252,-59.93252 10.22462,-10.22462 -71.4525,-71.45712 -10.22463,10.22924 -59.93251,-59.92791 89.84115,-89.84577 59.93713,59.92791 -19.51806,19.52267 12.26217,12.26678 50.67135,-50.67596 -12.26217,-12.26217 -18.84963,18.84963 -59.93713,-59.93252 89.17273,-89.17272 59.93252,59.93251 -10.22002,10.22463 71.44329,71.4525 10.22923,-10.22462 59.93713,59.93713 -89.17273,89.16812 -59.93712,-59.93252 18.84963,-18.84963 -9.97108,-9.97109 -50.67136,50.67597 9.96648,9.96647 19.51805,-19.51806 59.94174,59.94174 -89.84576,89.83193 z"
         style="fill:#ffffff;fill-opacity:1"
         inkscape:connector-curvature="0" />
    </g>
  </g>
</svg>
