<?xml version="1.0" encoding="UTF-8" standalone="no"?>
<!-- Created with Inkscape (http://www.inkscape.org/) -->

<svg
   xmlns:dc="http://purl.org/dc/elements/1.1/"
   xmlns:cc="http://creativecommons.org/ns#"
   xmlns:rdf="http://www.w3.org/1999/02/22-rdf-syntax-ns#"
   xmlns:svg="http://www.w3.org/2000/svg"
   xmlns="http://www.w3.org/2000/svg"
   xmlns:sodipodi="http://sodipodi.sourceforge.net/DTD/sodipodi-0.dtd"
   xmlns:inkscape="http://www.inkscape.org/namespaces/inkscape"
   width="210mm"
   height="297mm"
   id="svg11216"
   version="1.1"
   inkscape:version="0.48.2 r9819"
   sodipodi:docname="logo1.1.svg">
  <title
     id="title3012">Bristol Hackspace Logo v1.1</title>
  <sodipodi:namedview
     inkscape:document-units="mm"
     id="base"
     pagecolor="#ffffff"
     bordercolor="#666666"
     borderopacity="1.0"
     inkscape:pageopacity="0.0"
     inkscape:pageshadow="2"
     inkscape:zoom="0.49497475"
     inkscape:cx="27.518648"
     inkscape:cy="567.52635"
     inkscape:current-layer="layer1"
     showgrid="false"
     inkscape:window-width="1020"
     inkscape:window-height="819"
     inkscape:window-x="537"
     inkscape:window-y="134"
     inkscape:window-maximized="0" />
  <defs
     id="defs3" />
  <metadata
     id="metadata4">
    <rdf:RDF>
      <cc:Work
         rdf:about="">
        <dc:format>image/svg+xml</dc:format>
        <dc:type
           rdf:resource="http://purl.org/dc/dcmitype/StillImage" />
        <dc:title>Bristol Hackspace Logo v1.1</dc:title>
        <cc:license
           rdf:resource="http://creativecommons.org/licenses/by/3.0/" />
        <dc:date>2012-03-22</dc:date>
        <dc:creator>
          <cc:Agent>
            <dc:title>Barney Livingston</dc:title>
          </cc:Agent>
        </dc:creator>
        <dc:description></dc:description>
      </cc:Work>
      <cc:License
         rdf:about="http://creativecommons.org/licenses/by/3.0/">
        <cc:permits
           rdf:resource="http://creativecommons.org/ns#Reproduction" />
        <cc:permits
           rdf:resource="http://creativecommons.org/ns#Distribution" />
        <cc:requires
           rdf:resource="http://creativecommons.org/ns#Notice" />
        <cc:requires
           rdf:resource="http://creativecommons.org/ns#Attribution" />
        <cc:permits
           rdf:resource="http://creativecommons.org/ns#DerivativeWorks" />
      </cc:License>
    </rdf:RDF>
  </metadata>
  <g
     inkscape:label="Layer 1"
     inkscape:groupmode="layer"
     id="layer1">
    <g
       id="g4443">
      <path
         id="path7569"
         d="m 583.37723,504.76037 0.1156,-0.01 18.6076,3.71792 18.78796,8.81969 0,11.23982 -18.78796,8.81969 -18.6076,3.71792 -0.1156,-0.01 -2.10941,16.69659 0.11395,0.0197 17.09912,8.22778 16.00384,13.21561 -2.79479,10.88647 -20.39155,3.87122 -18.94783,-1.02724 -0.10903,-0.0385 -6.19543,15.64803 0.10575,0.0467 14.51585,12.22279 12.2146,16.78021 -5.41496,9.84858 -20.71291,-1.32156 -18.09767,-5.70681 -0.0959,-0.0639 -9.89203,13.61486 0.091,0.0721 11.01929,15.44799 7.658,19.29134 -7.69407,8.19253 -19.73323,-6.43154 -16.10959,-10.0273 -0.0779,-0.0869 -12.9672,10.72743 0.0705,0.0926 6.83161,17.70334 2.61935,20.58912 -9.4895,6.02244 -17.51395,-11.13734 -13.10985,-13.71898 -0.0533,-0.10247 -15.22745,7.16528 0.0451,0.10658 2.21435,18.84617 -2.58328,20.59404 -10.68889,3.47279 -14.19448,-15.1422 -9.28618,-16.5482 -0.0262,-0.11313 -16.53098,3.15305 0.0172,0.11478 -2.54228,18.80518 -7.62275,19.30445 -11.21686,0.70587 -9.98303,-18.19687 -4.87879,-18.33788 0.002,-0.11641 -16.79578,-1.05676 -0.0123,0.1156 -7.13823,17.582 -12.18508,16.80234 -11.03979,-2.10613 -5.14359,-20.10789 -0.1656,-18.97488 0.032,-0.11232 -16.00547,-5.20016 -0.041,0.10904 -11.28655,15.25369 -15.98006,13.2443 -10.16995,-4.78533 0.0189,-20.75555 4.55906,-18.41986 0.0582,-0.10002 -14.20923,-9.01809 -0.0664,0.0959 -14.72572,11.96783 -18.77239,8.85412 -8.65983,-7.16446 5.17967,-20.09887 8.99677,-16.70724 0.0812,-0.0828 -11.5202,-12.26788 -0.0877,0.0762 -17.23931,7.92936 -20.38417,3.9073 -6.60616,-9.0927 10.015,-18.17883 12.86882,-13.94525 0.0992,-0.0598 -8.10727,-14.74786 -0.10411,0.0517 -18.66991,3.39408 -20.71538,-1.28467 -4.13685,-10.45032 14.22154,-15.11679 15.9325,-10.30686 0.11068,-0.0336 -4.18521,-16.30061 -0.11314,0.0246 -18.92733,-1.35682 -19.74553,-6.39546 -1.40846,-11.15047 17.53445,-11.10619 17.99519,-6.01998 0.1156,-0.005 0,-16.8294 -0.1156,-0.005 -17.99519,-6.01998 -17.53445,-11.10619 1.40846,-11.15047 19.74553,-6.39546 18.92733,-1.35682 0.11314,0.0246 4.18521,-16.30061 -0.11068,-0.0336 -15.9325,-10.30686 -14.22154,-15.11679 4.13685,-10.45032 20.71538,-1.28467 18.66991,3.39408 0.10411,0.0516 8.10727,-14.74786 -0.0992,-0.0598 -12.86882,-13.94525 -10.015,-18.17883 6.60616,-9.0927 20.38417,3.9073 17.23931,7.92936 0.0877,0.0762 11.5202,-12.26788 -0.0812,-0.0828 -8.99677,-16.70724 -5.17967,-20.09887 8.65983,-7.16446 18.77239,8.85412 14.72572,11.96783 0.0664,0.0959 14.20923,-9.01809 -0.0582,-0.10002 -4.55906,-18.41986 -0.0189,-20.75555 10.16995,-4.78533 15.98006,13.2443 11.28655,15.25369 0.041,0.10904 16.00547,-5.20016 -0.032,-0.11232 0.1656,-18.97488 5.14359,-20.10789 11.03979,-2.10613 12.18508,16.80234 7.13823,17.582 0.0123,0.1156 16.79578,-1.05676 -0.002,-0.11641 4.87879,-18.33788 9.98303,-18.19687 11.21686,0.70587 7.62275,19.30445 2.54228,18.80518 -0.0172,0.11478 16.53098,3.15305 0.0262,-0.11313 9.28618,-16.5482 14.19448,-15.1422 10.68889,3.47279 2.58328,20.59404 -2.21435,18.84617 -0.0451,0.10658 15.22745,7.16528 0.0533,-0.10247 13.10985,-13.71898 17.51395,-11.13734 9.4895,6.02244 -2.61935,20.58912 -6.83161,17.70334 -0.0705,0.0926 12.9672,10.72743 0.0779,-0.0869 16.10959,-10.0273 19.73323,-6.43154 7.69407,8.19253 -7.658,19.29134 -11.01929,15.44799 -0.091,0.0721 9.89203,13.61486 0.0959,-0.064 18.09767,-5.70681 20.71291,-1.32156 5.41496,9.84858 -12.2146,16.78021 -14.51585,12.22279 -0.10575,0.0467 6.19543,15.64803 0.10903,-0.0385 18.94783,-1.02724 20.39155,3.87122 2.79479,10.88647 -16.00384,13.21561 -17.09912,8.22778 -0.11395,0.0197 z"
         style="fill:#f08818;fill-opacity:1;stroke:none"
         inkscape:connector-curvature="0" />
      <g
         id="g4422">
        <path
           inkscape:connector-curvature="0"
           style="fill:#ffffff;fill-opacity:1"
           d="m 373.20871,714.22559 -59.93252,-59.93252 10.22462,-10.22462 -71.4525,-71.45712 -10.22463,10.22924 -59.93251,-59.92791 89.84115,-89.84577 59.93713,59.92791 -19.51806,19.52267 12.26217,12.26678 50.67135,-50.67596 -12.26217,-12.26217 -18.84963,18.84963 -59.93713,-59.93252 89.17273,-89.17272 59.93252,59.93251 -10.22002,10.22463 71.44329,71.4525 10.22923,-10.22462 59.93713,59.93713 -89.17273,89.16812 -59.93712,-59.93252 18.84963,-18.84963 -9.97108,-9.97109 -50.67136,50.67597 9.96648,9.96647 19.51805,-19.51806 59.94174,59.94174 -89.84576,89.83193 z"
           id="path240-4" />
        <g
           transform="matrix(0.70710678,0.70710678,-0.70710678,0.70710678,0,0)"
           style="font-size:52.24541855px;font-style:normal;font-variant:normal;font-weight:normal;font-stretch:normal;text-align:start;line-height:125%;letter-spacing:0px;word-spacing:0px;writing-mode:lr-tb;text-anchor:start;fill:#f08818;fill-opacity:1;stroke:#f08818;stroke-width:1.70787406;stroke-miterlimit:4;stroke-opacity:1;display:inline;font-family:ocra10;-inkscape-font-specification:ocra10"
           id="text5760-8">
          <path
             d="m 514.60907,50.878983 0,-38.673855 11.60726,0 c 1.53061,3.8e-5 2.61055,0.01704 3.23983,0.05102 2.15986,0.06807 4.02212,0.646303 5.58679,1.734711 2.85714,2.057878 4.28573,5.144641 4.28576,9.260296 -3e-5,2.755155 -0.56126,4.864017 -1.68369,6.326594 -0.79936,1.071459 -1.36909,1.70922 -1.7092,1.913284 l 0,0.102042 c 0.30609,0.136075 0.73977,0.552745 1.30103,1.250013 1.39454,1.734727 2.09183,4.073183 2.09186,7.015376 -3e-5,4.115694 -1.42862,7.193953 -4.28576,9.234785 -1.56467,1.105454 -3.42693,1.692194 -5.58679,1.760222 -0.62928,0.01701 -1.70922,0.02551 -3.23983,0.02551 l -11.60726,0 m 5.02556,-5.025561 7.52559,0 c 0.59522,5e-6 1.13945,0.0085 1.63267,0.02551 1.19046,0.03402 2.22789,-0.212582 3.11227,-0.739804 1.59863,-0.935376 2.39796,-2.712603 2.39799,-5.331685 -3e-5,-2.61906 -0.99494,-4.396287 -2.98473,-5.331686 -0.62928,-0.272095 -2.03235,-0.408151 -4.20922,-0.408167 l -7.47457,0 0,11.785831 m 0,-16.811392 7.47457,0 c 2.19388,2.2e-5 3.59695,-0.136034 4.20922,-0.408167 1.98979,-0.93536 2.9847,-2.712587 2.98473,-5.331686 -3e-5,-3.384356 -1.30106,-5.365667 -3.9031,-5.943937 -0.56125,-0.119015 -1.09697,-0.170036 -1.60716,-0.153062 -0.51023,0.01704 -1.05445,0.02554 -1.63267,0.02551 l -7.52559,0 0,11.811342"
             style="line-height:125%;stroke:#f08818;font-family:ocra10;-inkscape-font-specification:ocra10"
             id="path3006" />
          <path
             d="m 550.37474,46.695267 0.051,-3.9031 0,-16.301183 c -10e-6,-1.25849 0.085,-2.06632 0.2551,-2.423493 0.4932,-0.901342 1.16497,-1.352026 2.01533,-1.352054 1.90477,2.8e-5 2.85716,1.096976 2.85717,3.290849 -10e-6,0.272136 -0.017,0.654792 -0.051,1.14797 -0.034,0.493226 -0.051,0.841868 -0.051,1.045929 0.96938,-0.901346 2.01531,-1.819721 3.13778,-2.755129 1.13946,-0.952364 1.85375,-1.564615 2.14288,-1.836753 0.62924,-0.62923 1.42857,-0.943859 2.39799,-0.943887 l 1.19899,0.05102 2.55104,-0.05102 c 2.99321,2.8e-5 5.11907,0.816362 6.37762,2.449004 1.25848,1.615686 1.88774,3.511962 1.88777,5.688832 -3e-5,2.17691 -0.81636,3.265355 -2.449,3.265339 -1.1565,1.6e-5 -1.94733,-0.493185 -2.37248,-1.479607 -0.13608,-0.340121 -0.2041,-1.028903 -0.20408,-2.066347 -2e-5,-1.054411 -0.28064,-1.777207 -0.84184,-2.168389 -0.54425,-0.408145 -1.34358,-0.612228 -2.39799,-0.612251 -1.03744,2.3e-5 -1.71772,-0.01698 -2.04083,-0.05102 l -0.45919,0 c -0.45921,2.3e-5 -0.88438,0.170093 -1.27552,0.510209 l -7.14293,6.173531 c -0.13607,0.136072 -0.24662,0.238114 -0.33164,0.306126 -0.15307,0.119064 -0.2296,0.629273 -0.22959,1.530627 l 0.051,2.397983 0,7.423543 0.051,1.607159 c -10e-6,1.224504 -0.25512,2.074852 -0.76532,2.551046 -0.51021,0.459189 -1.08845,0.688783 -1.73471,0.688783 -0.62926,0 -1.19899,-0.212587 -1.7092,-0.637762 -0.51021,-0.44218 -0.79083,-0.926878 -0.84184,-1.454096 -0.051,-0.527214 -0.0765,-1.224499 -0.0765,-2.091858"
             style="line-height:125%;stroke:#f08818;font-family:ocra10;-inkscape-font-specification:ocra10"
             id="path3008" />
          <path
             d="m 588.69145,25.164441 c -1e-5,-1.666656 1.17347,-2.499997 3.52044,-2.500025 l 2.70411,0.05102 2.72962,-0.05102 c 1.66666,2.8e-5 2.7466,0.484726 3.23983,1.454096 0.17004,0.340166 0.25508,1.113982 0.2551,2.321452 l 0,19.413458 3.75004,0 c 1.15645,5e-6 2.0323,0.170075 2.62757,0.510209 0.61223,0.323137 0.91835,0.994912 0.91838,2.015327 -3e-5,1.003412 -0.29765,1.675187 -0.89287,2.015326 -0.57826,0.323132 -1.37759,0.484699 -2.39798,0.484699 l -11.07154,0 -2.09185,0.05102 c -2.1599,0 -3.23984,-0.867354 -3.23983,-2.602066 -10e-6,-0.969394 0.30611,-1.624162 0.91837,-1.964306 0.61224,-0.340134 1.49661,-0.510204 2.65309,-0.510209 l 3.80106,0 0,-18.112425 -3.648,0 c -1.12247,2.3e-5 -1.81975,-0.051 -2.09185,-0.153063 -1.12247,-0.391137 -1.6837,-1.198967 -1.68369,-2.423493 m 4.92351,-10.867456 0,-0.357146 c -10e-6,-1.224464 0.16156,-2.159846 0.4847,-2.80615 0.34013,-0.663232 1.06292,-0.994868 2.16839,-0.994908 l 1.78573,0 c 2.05783,4e-5 3.08675,0.969437 3.08677,2.908192 l 0,0.382657 c -2e-5,2.312983 -0.71431,3.580001 -2.14288,3.801058 l -2.14288,0 c -1.32656,3.4e-5 -2.20241,-0.272078 -2.62757,-0.816335 -0.40818,-0.544188 -0.61227,-1.249976 -0.61226,-2.117368"
             style="line-height:125%;stroke:#f08818;font-family:ocra10;-inkscape-font-specification:ocra10"
             id="path3010" />
          <path
             d="m 622.00811,46.236079 c -10e-6,-0.561225 0.22959,-1.122454 0.68878,-1.68369 0.47619,-0.561223 1.02041,-0.841838 1.63267,-0.841845 0.61224,7e-6 1.4711,0.365656 2.57656,1.096949 1.12245,0.731306 2.29593,1.096955 3.52044,1.09695 l 1.81124,-0.05102 4.71944,0.05102 2.34696,-0.05102 c 0.62924,-0.03401 1.18196,-0.289113 1.65818,-0.765313 0.49318,-0.493196 0.73978,-1.028915 0.7398,-1.607159 -2e-5,-0.578229 -0.068,-1.02041 -0.20408,-1.326544 -0.13608,-0.306117 -0.34867,-0.561221 -0.63776,-0.765314 -0.27214,-0.221081 -0.51023,-0.39115 -0.71429,-0.510209 -0.34017,-0.204074 -0.86738,-0.425164 -1.58165,-0.663272 l -9.56642,-4.234736 c -2.31296,-0.816319 -3.95413,-1.768709 -4.92352,-2.857171 -0.9524,-1.088428 -1.42859,-2.474495 -1.42859,-4.158205 0,-1.683667 0.61225,-3.154768 1.83675,-4.413309 1.2415,-1.258489 2.89118,-1.887746 4.94903,-1.887774 l 1.9388,0.05102 5.53577,0 c 0.73128,2.8e-5 1.40305,-0.0085 2.01532,-0.02551 1.53061,-0.05099 2.80613,0.187105 3.82657,0.714293 2.32993,1.190514 3.49491,2.52556 3.49494,4.005142 -3e-5,0.629281 -0.23813,1.199014 -0.7143,1.709201 -0.45921,0.51023 -1.05446,0.765334 -1.78573,0.765313 -0.73133,2.1e-5 -1.46263,-0.365628 -2.1939,-1.096949 -0.73132,-0.731277 -1.56466,-1.096927 -2.50002,-1.09695 l -1.63267,0.05102 -5.48475,0 -1.88778,-0.102042 c -1.63268,2.3e-5 -2.44901,0.484722 -2.449,1.454096 -1e-5,0.527238 0.34863,0.943908 1.04593,1.250013 l 11.55624,5.076581 c 0.69726,0.272127 1.36053,0.569748 1.98981,0.892866 l 0.84185,0.433678 c 0.51018,0.272125 1.07991,0.714306 1.7092,1.326543 1.32651,1.428598 1.98978,3.052762 1.98981,4.872498 -3e-5,1.802745 -0.49323,3.426909 -1.4796,4.872498 -0.96943,1.445594 -2.46604,2.41499 -4.48984,2.908192 -0.73133,0.136056 -1.59868,0.204083 -2.60207,0.204083 l -3.03574,-0.05102 -3.49494,0.05102 c -2.43201,0 -4.40481,-0.314628 -5.91842,-0.943886 -2.46602,-1.105452 -3.69903,-2.355463 -3.69902,-3.750038"
             style="line-height:125%;stroke:#f08818;font-family:ocra10;-inkscape-font-specification:ocra10"
             id="path3012" />
          <path
             d="m 657.87581,25.215462 c 0,-1.70067 1.06293,-2.551018 3.18881,-2.551046 -10e-6,2.8e-5 0.57823,0.01703 1.73471,0.05102 l 0,-4.591883 c -1e-5,-1.258482 0.085,-2.057809 0.2551,-2.397983 0.4932,-0.901333 1.25001,-1.352018 2.27044,-1.352054 1.0204,-0.01697 1.7602,0.416707 2.21941,1.301033 0.17005,0.391195 0.25508,1.224536 0.2551,2.500025 l 0,4.540862 6.73476,0 2.24492,-0.05102 c 0.52719,2.8e-5 1.02039,0.03404 1.47961,0.102042 0.47617,0.06806 0.90984,0.357174 1.30103,0.867355 0.39113,0.510236 0.58671,1.071466 0.58674,1.68369 -3e-5,0.595269 -0.24663,1.156499 -0.7398,1.683691 -0.49323,0.527239 -1.34358,0.790847 -2.55105,0.790824 l -2.27043,-0.05102 -6.78578,0 0,12.678698 -0.051,1.989815 c -2e-5,2.295948 0.97788,3.443917 2.9337,3.443912 l 3.49493,0 c 1.2585,5e-6 2.06633,-0.161561 2.4235,-0.484698 0.37413,-0.340134 0.67175,-0.816329 0.89286,-1.428586 0.5442,-1.496605 1.40305,-2.244911 2.57656,-2.24492 0.59522,9e-6 1.17345,0.212596 1.73471,0.637761 0.5612,0.408175 0.84182,1.096957 0.84185,2.066347 -3e-5,0.969403 -0.36568,1.981317 -1.09695,3.035745 -0.73133,1.037427 -1.50515,1.794237 -2.32145,2.27043 -0.81637,0.476196 -1.66671,0.799329 -2.55105,0.969398 -0.86738,0.17007 -1.6582,0.246601 -2.37247,0.229594 -0.71432,-0.01701 -1.6497,-0.02551 -2.80615,-0.02551 -4.21775,0 -6.88784,-1.479606 -8.01029,-4.43882 -0.37416,-0.969392 -0.58675,-1.802733 -0.63776,-2.500025 -0.034,-0.697278 -0.051,-1.692185 -0.051,-2.984724 l 0,-13.214417 -1.78573,0.05102 c -1.22451,2.3e-5 -2.05785,-0.272088 -2.50003,-0.816335 -0.42518,-0.544199 -0.63776,-1.130938 -0.63776,-1.760221"
             style="line-height:125%;stroke:#f08818;font-family:ocra10;-inkscape-font-specification:ocra10"
             id="path3014" />
          <path
             d="m 693.64147,40.649289 0.051,-2.831661 0,-4.591883 c 0,-1.258497 0.0255,-2.151362 0.0765,-2.678598 0.051,-0.544202 0.33163,-1.292508 0.84185,-2.24492 0.5102,-0.969374 1.30102,-1.921763 2.37247,-2.857171 2.2279,-1.853733 4.40479,-2.780612 6.53068,-2.78064 l 2.39798,0.05102 2.47452,-0.05102 c 1.49659,2.8e-5 2.66156,0.178601 3.49493,0.535719 0.83332,0.340167 1.7772,0.977928 2.83166,1.913285 1.07141,0.918401 1.7857,1.581672 2.14288,1.989815 1.0544,1.207518 1.59012,3.1208 1.60716,5.739854 l -0.051,2.83166 0,4.642904 c -3e-5,2.329963 -0.23813,3.954127 -0.7143,4.872497 -0.47622,0.901375 -1.55616,2.083358 -3.23982,3.545954 -1.68372,1.4626 -3.76707,2.193899 -6.25007,2.193899 l -0.91837,-0.05102 -3.62249,0 c -1.46261,0 -2.61058,-0.161567 -3.44391,-0.484699 -0.83335,-0.340139 -1.82826,-1.011914 -2.98472,-2.015326 -1.32656,-1.037422 -2.26194,-2.08335 -2.80615,-3.137787 -0.52723,-1.071432 -0.79083,-2.602058 -0.79083,-4.591882 m 4.97454,0.408167 c -10e-6,1.122469 0.14455,1.845265 0.43368,2.168389 0.28911,0.32314 0.66326,0.705796 1.12246,1.147971 0.45917,0.442187 0.93537,0.81634 1.42858,1.12246 0.5102,0.30613 1.233,0.459193 2.16839,0.459188 l 2.47452,-0.102042 2.14288,0.05102 c 0.76529,5e-6 1.2925,-0.05952 1.58164,-0.178573 0.2891,-0.119044 0.75679,-0.416665 1.40308,-0.892866 0.64624,-0.493196 1.14795,-0.960887 1.50512,-1.403075 0.37413,-0.459181 0.5612,-1.113948 0.56123,-1.964306 l -0.051,-1.250012 0,-5.280665 0.10204,-2.397983 c -3e-5,-1.122441 -0.15309,-1.845236 -0.45919,-2.168389 -0.28914,-0.323112 -0.56976,-0.61223 -0.84185,-0.867355 l -0.9949,-0.841846 c -0.78235,-0.680256 -1.73474,-1.020395 -2.85717,-1.020418 l -2.47452,0.102042 -2.14288,-0.05102 c -1.15649,2.3e-5 -1.95581,0.195603 -2.39798,0.586741 l -1.58165,1.352054 c -0.7143,0.612271 -1.07145,1.445612 -1.07144,2.500025 l 0.051,1.250012 0,5.280665 -0.10204,2.397983"
             style="line-height:125%;stroke:#f08818;font-family:ocra10;-inkscape-font-specification:ocra10"
             id="path3016" />
          <path
             d="m 731.95819,14.730663 c -10e-6,-0.561193 0.19557,-1.088409 0.58674,-1.581648 0.40816,-0.510171 0.88436,-0.799289 1.42859,-0.867356 0.54421,-0.085 1.21599,-0.127513 2.01533,-0.127552 l 3.59697,0.05102 1.68369,-0.05102 c 2.15987,3.9e-5 3.23981,1.062973 3.23983,3.188807 l -0.10204,2.040837 0,28.469671 3.75003,0 c 1.15645,5e-6 2.03231,0.170075 2.62758,0.510209 0.61222,0.323137 0.91835,0.994912 0.91838,2.015327 -3e-5,1.003412 -0.29765,1.675187 -0.89287,2.015326 -0.57826,0.323132 -1.37759,0.484699 -2.39798,0.484699 l -11.07154,0 -2.09186,0.05102 c -2.15989,0 -3.23983,-0.867354 -3.23983,-2.602066 0,-0.969394 0.30612,-1.624162 0.91838,-1.964306 0.61224,-0.340134 1.4966,-0.510204 2.65309,-0.510209 l 3.80106,0 0,-28.622734 -3.69902,0 c -1.12247,3.4e-5 -1.81976,-0.05099 -2.09186,-0.153063 -1.08845,-0.442147 -1.63268,-1.224467 -1.63267,-2.346962"
             style="line-height:125%;stroke:#f08818;font-family:ocra10;-inkscape-font-specification:ocra10"
             id="path3018" />
        </g>
        <g
           transform="matrix(0.70710678,0.70710678,-0.70710678,0.70710678,0,0)"
           style="font-size:40.22089767px;font-style:normal;font-variant:normal;font-weight:bold;font-stretch:normal;line-height:125%;letter-spacing:0px;word-spacing:0px;fill:#f08818;fill-opacity:1;stroke:#f08818;stroke-width:1.70787406;stroke-miterlimit:4;stroke-opacity:1;display:inline;font-family:ocra10;-inkscape-font-specification:ocra10 Bold"
           id="text5764-2">
          <path
             d="m 514.79931,191.91947 0.0393,-1.37474 0,-23.19378 c 0,-1.84605 0.62845,-2.77564 1.88536,-2.78876 0.48442,3e-5 0.92303,0.15714 1.31582,0.47134 0.49751,0.39281 0.74627,1.20456 0.74628,2.43525 l -0.0786,2.49417 0,7.56105 11.29248,0 0,-10.0945 c -2e-5,-0.77244 0.0131,-1.23069 0.0393,-1.37474 0.23565,-0.96883 0.85101,-1.44671 1.84608,-1.43365 0.51059,3e-5 0.97539,0.17678 1.39438,0.53026 0.41894,0.34044 0.62842,0.96234 0.62845,1.86571 l -0.0393,1.33546 0,23.17415 c -2e-5,1.87226 -0.62848,2.80839 -1.88536,2.80839 -0.48445,0 -0.92305,-0.16366 -1.31582,-0.49097 -0.49754,-0.40588 -0.7463,-1.22417 -0.74628,-2.45489 l 0.0786,-2.47453 0,-7.52178 -11.29248,0 0,10.13378 0.0393,0.72665 c 0,0.61536 -0.19639,1.11288 -0.58917,1.49257 -0.39279,0.3666 -0.87067,0.54989 -1.43365,0.54989 -1.2831,0 -1.92464,-0.79211 -1.92464,-2.37633"
             style=""
             id="path3021" />
          <path
             d="m 542.4119,188.2666 c 0,-1.81989 0.16366,-3.14225 0.49098,-3.9671 0.34041,-0.83793 0.77901,-1.5122 1.31582,-2.02283 1.20453,-1.07359 3.01787,-1.61039 5.44003,-1.61041 l 3.29937,0.0786 1.88536,-0.0393 c 0.96884,10e-6 1.74786,0.0917 2.33705,0.27495 -2e-5,-1.9639 -0.16368,-3.19461 -0.49097,-3.69215 -0.31425,-0.5106 -1.06708,-0.76591 -2.2585,-0.76593 l -3.53504,0 -1.8068,0.0393 c -2.12103,2e-5 -3.07026,-0.779 -2.84767,-2.33706 0.20947,-1.07358 1.11942,-1.61038 2.72983,-1.6104 l 1.27655,0.0393 3.47612,0 c 1.71513,2e-5 3.05714,0.19641 4.02602,0.58917 2.18646,0.86414 3.27971,3.26666 3.27973,7.20755 l 0.29459,8.50374 0.11783,3.37792 c -2e-5,0.61536 -0.18332,1.10634 -0.5499,1.47294 -0.36661,0.3535 -0.80522,0.53025 -1.31582,0.53025 -0.49754,0 -0.94924,-0.16366 -1.35509,-0.49097 -0.4059,-0.34042 -0.62193,-0.79211 -0.64809,-1.3551 -0.35353,0.15711 -0.7725,0.41242 -1.25691,0.76592 -1.07362,0.74629 -2.03594,1.11943 -2.88695,1.11943 l -1.19798,-0.0393 -2.94587,0.0786 c -1.68897,0 -3.01134,-0.2684 -3.9671,-0.8052 -1.93773,-1.12598 -2.90659,-2.90659 -2.90659,-5.34184 m 3.86891,-0.15711 c -10e-6,1.17835 0.30112,1.88535 0.9034,2.12102 0.40586,0.15712 0.94921,0.23567 1.63004,0.23567 l 2.92623,0 1.00159,0.0393 c 0.30112,0 0.58916,-0.0655 0.86412,-0.19639 0.28803,-0.13093 1.19797,-0.66773 2.72984,-1.61041 0.74627,-0.30113 1.11941,-0.6219 1.11943,-0.96232 -2e-5,-0.18329 -0.0197,-0.43205 -0.0589,-0.74628 -0.0393,-0.32732 -0.072,-0.58262 -0.0982,-0.76593 -0.0262,-0.19638 -0.0982,-0.45824 -0.21603,-0.78556 -0.2226,-0.58917 -0.90342,-0.88375 -2.04247,-0.88376 l -1.11943,0.0393 -3.98674,0 -1.33546,-0.0393 c -0.94269,1e-5 -1.56459,0.22258 -1.86571,0.66773 -0.30115,0.44516 -0.45171,1.19144 -0.4517,2.23885 l 0,0.6481"
             style=""
             id="path3023" />
          <path
             d="m 569.94593,181.9428 c 0,-1.50565 0.21603,-2.62507 0.6481,-3.35828 0.43205,-0.73318 1.27653,-1.63658 2.53344,-2.7102 l 1.17835,-1.0016 c 1.20452,-1.07358 2.19957,-1.71512 2.98514,-1.92463 0.78555,-0.22255 1.42055,-0.33384 1.905,-0.33386 l 1.33546,0.0393 3.80998,0 1.94427,-0.0786 c 1.81987,2e-5 2.72982,0.66775 2.72984,2.00319 -2e-5,0.48445 -0.18332,0.93615 -0.54989,1.3551 -0.36662,0.41898 -0.98853,0.62847 -1.86572,0.62845 l -1.29618,-0.0393 -4.34024,0 -1.4533,-0.0393 c -0.7463,2e-5 -1.33547,0.16368 -1.76752,0.49098 -0.41898,0.31424 -1.06052,0.88378 -1.92463,1.7086 -1.04743,0.66775 -1.66279,1.31584 -1.84608,1.94427 -0.0786,0.18332 -0.11784,0.70703 -0.11783,1.57113 l 0,2.76912 c -10e-6,0.86413 0.072,1.42711 0.21603,1.68896 0.14401,0.26186 0.34695,0.52372 0.60881,0.78557 0.27494,0.24876 0.60226,0.51062 0.98196,0.78556 0.37967,0.26186 0.70699,0.54335 0.98195,0.84448 0.91648,0.96887 1.91807,1.44675 3.00479,1.43366 l 1.31582,-0.0393 4.30096,0 1.33546,-0.0393 c 1.61038,0 2.41559,0.67428 2.41561,2.02283 -2e-5,0.77247 -0.34698,1.33546 -1.04087,1.68896 -0.26188,0.13093 -0.88378,0.19639 -1.86572,0.19639 l -3.22081,0 -2.84767,0.0786 c -1.59733,0 -2.7233,-0.1833 -3.37793,-0.5499 -0.64155,-0.37968 -1.198,-0.76592 -1.66932,-1.1587 l -1.63005,-1.39438 c -1.42712,-1.20453 -2.35015,-2.17994 -2.76911,-2.92623 -0.40588,-0.74628 -0.60882,-1.95081 -0.60882,-3.61359 l -0.0393,-2.82804"
             style=""
             id="path3025" />
          <path
             d="m 597.51925,166.85997 c -1e-5,-0.86409 0.21602,-1.45981 0.64809,-1.78716 0.43205,-0.34038 0.88375,-0.51059 1.35509,-0.51062 1.28309,3e-5 1.93118,0.86415 1.94428,2.59236 l -0.0393,1.47294 0,13.07965 c 0.26184,-0.18329 0.53025,-0.39277 0.8052,-0.62846 l 8.64121,-7.42358 c 0.77245,-0.66771 1.42709,-1.00157 1.96391,-1.00159 0.53678,2e-5 0.98194,0.20295 1.33546,0.60881 0.35348,0.40589 0.53024,0.82486 0.53026,1.2569 -2e-5,0.41899 -0.0786,0.7594 -0.23567,1.02123 -0.14404,0.24879 -0.33389,0.46482 -0.56954,0.6481 -0.22259,0.17022 -0.46481,0.37316 -0.72664,0.60881 l -5.24365,4.45808 c -0.79867,0.74629 -1.36165,1.21763 -1.68896,1.41401 l 0,0.0393 c 0.32731,0.18331 0.73973,0.51063 1.23726,0.98196 0.49751,0.47134 2.78219,2.43525 6.85405,5.89173 l 0.98196,0.78556 c 0.851,0.68083 1.27652,1.31583 1.27654,1.905 -2e-5,0.57608 -0.18987,1.06706 -0.56953,1.47293 -0.37971,0.39278 -0.82487,0.58917 -1.33546,0.58917 -0.90342,0 -1.91811,-0.65463 -3.04406,-1.96391 l -7.63962,-6.52018 c -0.0786,-0.0786 -0.21604,-0.20948 -0.41242,-0.39278 -0.18331,-0.19639 -0.43862,-0.13092 -0.76592,0.19639 l -1.0016,0.84448 c -0.30114,0.22258 -0.44516,0.51717 -0.43206,0.88376 l 0.0393,0.84448 0,3.92782 c -10e-6,0.79866 -0.21604,1.36165 -0.64809,1.68897 -0.43207,0.32731 -0.85104,0.49097 -1.25691,0.49097 -0.39278,0 -0.8183,-0.14402 -1.27654,-0.43206 -0.45825,-0.30113 -0.68737,-1.06705 -0.68737,-2.29777 l 0,-23.78297 -0.0393,-0.96231"
             style=""
             id="path3027" />
          <path
             d="m 625.09256,190.76076 c -1e-5,-0.43205 0.17674,-0.86411 0.53025,-1.29618 0.36659,-0.43205 0.78556,-0.64808 1.25691,-0.64809 0.47133,1e-5 1.13251,0.2815 1.98355,0.84448 0.86411,0.563 1.76751,0.84449 2.71019,0.84449 l 1.39438,-0.0393 3.63323,0.0393 1.8068,-0.0393 c 0.48442,-0.0262 0.90993,-0.22257 1.27655,-0.58918 0.37967,-0.37968 0.56951,-0.7921 0.56953,-1.23726 -2e-5,-0.44515 -0.0524,-0.78556 -0.15711,-1.02123 -0.10476,-0.23567 -0.26842,-0.43206 -0.49098,-0.58918 -0.2095,-0.17019 -0.3928,-0.30112 -0.5499,-0.39278 -0.26187,-0.1571 -0.66774,-0.32731 -1.21762,-0.51062 l -7.36467,-3.26009 c -1.78062,-0.62844 -3.04407,-1.36163 -3.79035,-2.19958 -0.73319,-0.83792 -1.09979,-1.90498 -1.09979,-3.20117 0,-1.29617 0.47134,-2.42869 1.41402,-3.39757 0.95576,-0.96884 2.22576,-1.45327 3.80999,-1.45329 l 1.49257,0.0393 4.26169,0 c 0.56297,2e-5 1.08013,-0.007 1.55149,-0.0196 1.17832,-0.0393 2.16028,0.14404 2.94586,0.54989 1.79369,0.91651 2.69054,1.94429 2.69056,3.08334 -2e-5,0.48445 -0.18332,0.92306 -0.54989,1.31582 -0.35353,0.3928 -0.81178,0.58919 -1.37474,0.58918 -0.56301,1e-5 -1.126,-0.28148 -1.68897,-0.84449 -0.563,-0.56297 -1.20455,-0.84446 -1.92463,-0.84448 l -1.2569,0.0393 -4.22241,0 -1.45329,-0.0786 c -1.25692,2e-5 -1.88537,0.37316 -1.88536,1.11943 -10e-6,0.40589 0.26839,0.72667 0.80521,0.96232 l 8.89651,3.90818 c 0.53679,0.2095 1.0474,0.43862 1.53185,0.68737 l 0.64809,0.33387 c 0.39276,0.20949 0.83137,0.5499 1.31582,1.02123 1.02121,1.0998 1.53183,2.35015 1.53185,3.75107 -2e-5,1.38783 -0.37971,2.63819 -1.13906,3.75107 -0.74631,1.11288 -1.89847,1.85917 -3.45649,2.23886 -0.563,0.10474 -1.23073,0.15711 -2.00319,0.15711 l -2.33705,-0.0393 -2.69056,0.0393 c -1.87227,0 -3.39103,-0.24221 -4.55627,-0.72665 -1.89846,-0.85102 -2.84768,-1.81334 -2.84767,-2.88695"
             style=""
             id="path3029" />
          <path
             d="m 652.66586,200.1679 0.0393,-1.08015 0,-23.33127 -0.0393,-1.49257 c 0,-0.66771 0.14402,-1.19796 0.43206,-1.59077 0.39278,-0.54987 0.87066,-0.82482 1.43366,-0.82484 0.57607,2e-5 1.00813,0.13095 1.29618,0.39278 0.49751,0.44518 0.74627,0.97543 0.74628,1.59077 l 0,0.96232 c 1.64968,-1.99008 3.55467,-2.98512 5.71498,-2.98515 1.50565,3e-5 2.5858,0.24224 3.24046,0.72665 1.15214,0.82486 2.13409,1.64316 2.94586,2.45489 1.09977,0.99507 1.83297,1.70207 2.19958,2.12102 0.70699,0.83796 1.06049,2.48764 1.06052,4.94906 l 0,3.33865 c -3e-5,1.79371 -0.20296,3.05716 -0.60882,3.79035 -0.65466,1.19144 -1.85919,2.40906 -3.61359,3.65287 -0.37971,0.30113 -0.74631,0.62191 -1.09979,0.96232 -0.91651,0.91649 -2.12759,1.37473 -3.63324,1.37473 -1.49258,0 -2.61201,-0.20948 -3.35829,-0.62845 -0.74629,-0.40587 -1.69552,-1.19144 -2.84767,-2.35669 l 0,5.93101 0.0393,1.68896 c -1e-5,1.74133 -0.66119,2.612 -1.98355,2.61201 -0.51062,-1e-5 -0.96887,-0.17676 -1.37474,-0.53026 -0.39278,-0.35351 -0.58917,-0.92959 -0.58917,-1.72824 m 3.90818,-15.12212 c -10e-6,0.94269 0.0655,1.54495 0.19639,1.8068 0.13092,0.24877 0.30767,0.49753 0.53026,0.74629 0.23566,0.24877 0.5237,0.52371 0.86412,0.82484 0.35349,0.28805 0.61535,0.51717 0.78556,0.68737 0.18329,0.15712 0.42551,0.41243 0.72665,0.76592 0.31422,0.34042 0.55643,0.60227 0.72665,0.78557 0.44514,0.44516 0.9754,0.66119 1.59077,0.64809 0.95575,0 1.69549,-0.22257 2.21922,-0.66773 l 0.92303,-0.84448 c 1.45328,-1.23071 2.27158,-1.977 2.45489,-2.23886 0.18328,-0.26185 0.27493,-0.85757 0.27495,-1.78716 l 0,-2.90659 0.0786,-1.8068 c -2e-5,-0.85101 -0.13095,-1.42709 -0.39278,-1.72824 -0.24879,-0.31421 -0.59574,-0.64153 -1.04088,-0.98195 -0.43208,-0.3404 -0.86414,-0.71354 -1.29618,-1.11943 -0.43208,-0.41895 -0.85759,-0.779 -1.27654,-1.08015 -0.40589,-0.31421 -0.96233,-0.47132 -1.66933,-0.47134 -0.69392,2e-5 -1.25691,0.17677 -1.68896,0.53025 -0.41898,0.34043 -0.82485,0.73322 -1.21762,1.17835 -0.3928,0.44517 -0.77249,0.83141 -1.13907,1.15871 -0.75939,0.68084 -1.22418,1.198 -1.39438,1.55149 -0.17021,0.35352 -0.25532,0.98197 -0.25531,1.88535 l 0,3.0637"
             style=""
             id="path3031" />
          <path
             d="m 680.27846,188.2666 c -10e-6,-1.81989 0.16365,-3.14225 0.49097,-3.9671 0.34041,-0.83793 0.77902,-1.5122 1.31582,-2.02283 1.20453,-1.07359 3.01787,-1.61039 5.44004,-1.61041 l 3.29937,0.0786 1.88535,-0.0393 c 0.96885,10e-6 1.74787,0.0917 2.33706,0.27495 -2e-5,-1.9639 -0.16368,-3.19461 -0.49098,-3.69215 -0.31424,-0.5106 -1.06708,-0.76591 -2.2585,-0.76593 l -3.53504,0 -1.8068,0.0393 c -2.12103,2e-5 -3.07025,-0.779 -2.84767,-2.33706 0.20948,-1.07358 1.11942,-1.61038 2.72984,-1.6104 l 1.27654,0.0393 3.47612,0 c 1.71514,2e-5 3.05714,0.19641 4.02602,0.58917 2.18647,0.86414 3.27971,3.26666 3.27973,7.20755 l 0.29459,8.50374 0.11783,3.37792 c -2e-5,0.61536 -0.18332,1.10634 -0.54989,1.47294 -0.36662,0.3535 -0.80523,0.53025 -1.31582,0.53025 -0.49755,0 -0.94925,-0.16366 -1.3551,-0.49097 -0.40589,-0.34042 -0.62192,-0.79211 -0.64809,-1.3551 -0.35352,0.15711 -0.77249,0.41242 -1.2569,0.76592 -1.07363,0.74629 -2.03594,1.11943 -2.88695,1.11943 l -1.19799,-0.0393 -2.94587,0.0786 c -1.68897,0 -3.01133,-0.2684 -3.9671,-0.8052 -1.93773,-1.12598 -2.90659,-2.90659 -2.90658,-5.34184 m 3.8689,-0.15711 c -1e-5,1.17835 0.30113,1.88535 0.9034,2.12102 0.40587,0.15712 0.94921,0.23567 1.63005,0.23567 l 2.92622,0 1.0016,0.0393 c 0.30112,0 0.58916,-0.0655 0.86412,-0.19639 0.28802,-0.13093 1.19797,-0.66773 2.72984,-1.61041 0.74626,-0.30113 1.11941,-0.6219 1.11942,-0.96232 -10e-6,-0.18329 -0.0196,-0.43205 -0.0589,-0.74628 -0.0393,-0.32732 -0.072,-0.58262 -0.0982,-0.76593 -0.0262,-0.19638 -0.0982,-0.45824 -0.21603,-0.78556 -0.22259,-0.58917 -0.90342,-0.88375 -2.04247,-0.88376 l -1.11943,0.0393 -3.98673,0 -1.33546,-0.0393 c -0.94269,1e-5 -1.5646,0.22258 -1.86572,0.66773 -0.30114,0.44516 -0.45171,1.19144 -0.4517,2.23885 l 0,0.6481"
             style=""
             id="path3033" />
          <path
             d="m 707.8125,181.9428 c -10e-6,-1.50565 0.21602,-2.62507 0.64809,-3.35828 0.43205,-0.73318 1.27653,-1.63658 2.53344,-2.7102 l 1.17835,-1.0016 c 1.20452,-1.07358 2.19957,-1.71512 2.98514,-1.92463 0.78556,-0.22255 1.42055,-0.33384 1.905,-0.33386 l 1.33546,0.0393 3.80998,0 1.94428,-0.0786 c 1.81986,2e-5 2.72981,0.66775 2.72983,2.00319 -2e-5,0.48445 -0.18332,0.93615 -0.54989,1.3551 -0.36662,0.41898 -0.98853,0.62847 -1.86572,0.62845 l -1.29618,-0.0393 -4.34024,0 -1.4533,-0.0393 c -0.7463,2e-5 -1.33547,0.16368 -1.76752,0.49098 -0.41898,0.31424 -1.06052,0.88378 -1.92463,1.7086 -1.04743,0.66775 -1.66279,1.31584 -1.84608,1.94427 -0.0786,0.18332 -0.11784,0.70703 -0.11783,1.57113 l 0,2.76912 c -10e-6,0.86413 0.072,1.42711 0.21603,1.68896 0.14401,0.26186 0.34695,0.52372 0.60881,0.78557 0.27494,0.24876 0.60226,0.51062 0.98196,0.78556 0.37968,0.26186 0.70699,0.54335 0.98195,0.84448 0.91648,0.96887 1.91808,1.44675 3.00479,1.43366 l 1.31582,-0.0393 4.30096,0 1.33546,-0.0393 c 1.61039,0 2.41559,0.67428 2.41561,2.02283 -2e-5,0.77247 -0.34698,1.33546 -1.04087,1.68896 -0.26188,0.13093 -0.88378,0.19639 -1.86572,0.19639 l -3.22081,0 -2.84767,0.0786 c -1.59733,0 -2.7233,-0.1833 -3.37793,-0.5499 -0.64155,-0.37968 -1.19799,-0.76592 -1.66932,-1.1587 l -1.63005,-1.39438 c -1.42711,-1.20453 -2.35015,-2.17994 -2.76911,-2.92623 -0.40588,-0.74628 -0.60882,-1.95081 -0.60882,-3.61359 l -0.0393,-2.82804"
             style=""
             id="path3035" />
          <path
             d="m 735.3858,180.48951 c 0,-1.47946 0.18984,-2.59889 0.56953,-3.35829 0.39278,-0.77245 1.04742,-1.55801 1.96392,-2.35669 0.92957,-0.79864 1.74132,-1.35508 2.43524,-1.66933 0.707,-0.32729 1.62349,-0.49095 2.74948,-0.49097 l 1.64969,0.0393 1.94427,-0.0393 c 1.07359,2e-5 1.93116,0.1244 2.57272,0.37314 0.64153,0.23569 1.39436,0.73321 2.2585,1.49257 0.87719,0.74631 1.46636,1.30275 1.76752,1.66933 0.78554,0.96888 1.18487,2.48763 1.19798,4.55627 l -0.0393,2.96551 c -3e-5,1.17835 -0.3208,1.95737 -0.96232,2.33705 -0.30116,0.15712 -1.00162,0.23568 -2.10139,0.23567 l -12.09769,0 0,0.88376 c -1e-5,0.79866 0.1702,1.33546 0.51062,1.61041 0.35349,0.27495 0.69391,0.56299 1.02123,0.86412 0.3404,0.28804 0.56953,0.47134 0.68737,0.54989 0.36659,0.23568 0.92303,0.35351 1.66933,0.35351 l 1.57113,-0.0393 5.51859,0 1.27654,-0.0393 c 1.89842,0 2.86728,0.60882 2.90659,1.82644 -3e-5,0.64154 -0.17023,1.12597 -0.51062,1.45329 -0.32734,0.31423 -0.65466,0.49753 -0.98196,0.5499 -0.32734,0.0524 -0.77249,0.0786 -1.33546,0.0786 l -7.56105,0 c -1.68898,0 -2.85423,-0.10474 -3.49577,-0.31422 -0.64155,-0.22258 -1.51221,-0.79866 -2.612,-1.72824 -1.09979,-0.94268 -1.80025,-1.79371 -2.10138,-2.55309 -0.28805,-0.77247 -0.43207,-1.95081 -0.43206,-3.53504 l 0,-3.45648 -0.0393,-2.2585 m 3.90818,1.90499 11.29249,0 0,-2.21922 c -2e-5,-0.91647 -0.14404,-1.50564 -0.43206,-1.76752 -0.27497,-0.26183 -0.54337,-0.50405 -0.8052,-0.72664 -0.24878,-0.23565 -0.45172,-0.41895 -0.60882,-0.5499 l -0.47133,-0.33386 c -0.30115,-0.20947 -0.79868,-0.31421 -1.49258,-0.31423 l -1.29618,0.0393 -2.17994,-0.0786 c -0.66774,2e-5 -1.15872,0.0655 -1.47293,0.19639 -0.30115,0.13095 -0.77248,0.491 -1.41402,1.08016 l -0.54989,0.47133 c -0.39279,0.31425 -0.58264,0.97543 -0.56954,1.98355 l 0,2.21922"
             style=""
             id="path3037" />
        </g>
      </g>
    </g>
  </g>
</svg>
